<?xml version="1.0" encoding="UTF-8" standalone="no"?>
<!DOCTYPE svg PUBLIC "-//W3C//DTD SVG 1.1//EN"
 "http://www.w3.org/Graphics/SVG/1.1/DTD/svg11.dtd">
<!-- Generated by graphviz version 2.47.0 (20210316.0004)
 -->
<!-- Title: dependencies Pages: 1 -->
<svg width="877pt" height="284pt"
 viewBox="0.00 0.00 877.00 284.00" xmlns="http://www.w3.org/2000/svg" xmlns:xlink="http://www.w3.org/1999/xlink">
<g id="graph0" class="graph" transform="scale(1 1) rotate(0) translate(4 280)">
<title>dependencies</title>
<polygon fill="white" stroke="transparent" points="-4,4 -4,-280 873,-280 873,4 -4,4"/>
<text text-anchor="start" x="413.51" y="-42.4" font-family="Times-12" font-weight="bold" font-size="14.00">Legend</text>
<polygon fill="#ffffb3" stroke="transparent" points="200.5,-10 200.5,-30 220.5,-30 220.5,-10 200.5,-10"/>
<text text-anchor="start" x="224.13" y="-15.4" font-family="Times-12" font-size="14.00"> &#160;Declarations</text>
<polygon fill="#8dd3c7" stroke="transparent" points="313.5,-10 313.5,-30 333.5,-30 333.5,-10 313.5,-10"/>
<text text-anchor="start" x="337.23" y="-15.4" font-family="Times-12" font-size="14.00"> &#160;Module</text>
<polygon fill="#80b1d3" stroke="transparent" points="399.5,-10 399.5,-30 419.5,-30 419.5,-10 399.5,-10"/>
<text text-anchor="start" x="423.28" y="-15.4" font-family="Times-12" font-size="14.00"> &#160;Bootstrap</text>
<polygon fill="#fdb462" stroke="transparent" points="496.5,-10 496.5,-30 516.5,-30 516.5,-10 496.5,-10"/>
<text text-anchor="start" x="520.17" y="-15.4" font-family="Times-12" font-size="14.00"> &#160;Providers</text>
<polygon fill="#fb8072" stroke="transparent" points="592.5,-10 592.5,-30 612.5,-30 612.5,-10 592.5,-10"/>
<text text-anchor="start" x="616.23" y="-15.4" font-family="Times-12" font-size="14.00"> &#160;Exports</text>
<g id="clust1" class="cluster">
<title>cluster_AppModule</title>
<polygon fill="none" stroke="black" stroke-dasharray="1,5" points="8,-70 8,-268 861,-268 861,-70 8,-70"/>
</g>
<g id="clust2" class="cluster">
<title>cluster_AppModule_declarations</title>
<polygon fill="none" stroke="black" points="308,-78 308,-130 853,-130 853,-78 308,-78"/>
</g>
<g id="clust7" class="cluster">
<title>cluster_AppModule_imports</title>
<polygon fill="none" stroke="black" points="16,-78 16,-130 300,-130 300,-78 16,-78"/>
</g>
<g id="clust9" class="cluster">
<title>cluster_AppModule_bootstrap</title>
<polygon fill="none" stroke="black" points="395,-208 395,-260 519,-260 519,-208 395,-208"/>
</g>
<!-- AppComponent -->
<g id="node1" class="node">
<title>AppComponent</title>
<polygon fill="#ffffb3" stroke="black" points="844.94,-122 739.06,-122 739.06,-86 844.94,-86 844.94,-122"/>
<text text-anchor="middle" x="792" y="-99.8" font-family="Times,serif" font-size="14.00">AppComponent</text>
</g>
<!-- AppModule -->
<g id="node5" class="node">
<title>AppModule</title>
<polygon fill="#8dd3c7" stroke="black" points="498.66,-187 495.66,-191 474.66,-191 471.66,-187 415.34,-187 415.34,-151 498.66,-151 498.66,-187"/>
<text text-anchor="middle" x="457" y="-164.8" font-family="Times,serif" font-size="14.00">AppModule</text>
</g>
<!-- AppComponent&#45;&gt;AppModule -->
<g id="edge1" class="edge">
<title>AppComponent&#45;&gt;AppModule</title>
<path fill="none" stroke="black" d="M792,-122.28C792,-143.32 792,-175 792,-175 792,-175 508.75,-175 508.75,-175"/>
<polygon fill="black" stroke="black" points="508.75,-171.5 498.75,-175 508.75,-178.5 508.75,-171.5"/>
</g>
<!-- DetailComponent -->
<g id="node2" class="node">
<title>DetailComponent</title>
<polygon fill="#ffffb3" stroke="black" points="721.54,-122 606.46,-122 606.46,-86 721.54,-86 721.54,-122"/>
<text text-anchor="middle" x="664" y="-99.8" font-family="Times,serif" font-size="14.00">DetailComponent</text>
</g>
<!-- DetailComponent&#45;&gt;AppModule -->
<g id="edge2" class="edge">
<title>DetailComponent&#45;&gt;AppModule</title>
<path fill="none" stroke="black" d="M664,-122.02C664,-139.37 664,-163 664,-163 664,-163 508.89,-163 508.89,-163"/>
<polygon fill="black" stroke="black" points="508.89,-159.5 498.89,-163 508.89,-166.5 508.89,-159.5"/>
</g>
<!-- HomeComponent -->
<g id="node3" class="node">
<title>HomeComponent</title>
<polygon fill="#ffffb3" stroke="black" points="587.55,-122 472.45,-122 472.45,-86 587.55,-86 587.55,-122"/>
<text text-anchor="middle" x="530" y="-99.8" font-family="Times,serif" font-size="14.00">HomeComponent</text>
</g>
<!-- HomeComponent&#45;&gt;AppModule -->
<g id="edge3" class="edge">
<title>HomeComponent&#45;&gt;AppModule</title>
<path fill="none" stroke="black" d="M485.53,-122.11C485.53,-122.11 485.53,-140.99 485.53,-140.99"/>
<polygon fill="black" stroke="black" points="482.03,-140.99 485.53,-150.99 489.03,-140.99 482.03,-140.99"/>
</g>
<!-- NotFoundComponent -->
<g id="node4" class="node">
<title>NotFoundComponent</title>
<polygon fill="#ffffb3" stroke="black" points="454.11,-122 315.89,-122 315.89,-86 454.11,-86 454.11,-122"/>
<text text-anchor="middle" x="385" y="-99.8" font-family="Times,serif" font-size="14.00">NotFoundComponent</text>
</g>
<!-- NotFoundComponent&#45;&gt;AppModule -->
<g id="edge4" class="edge">
<title>NotFoundComponent&#45;&gt;AppModule</title>
<path fill="none" stroke="black" d="M434.61,-122.11C434.61,-122.11 434.61,-140.99 434.61,-140.99"/>
<polygon fill="black" stroke="black" points="431.11,-140.99 434.61,-150.99 438.11,-140.99 431.11,-140.99"/>
</g>
<!-- AppComponent  -->
<g id="node8" class="node">
<title>AppComponent </title>
<polygon fill="#80b1d3" stroke="black" points="511.44,-252 402.56,-252 402.56,-216 511.44,-216 511.44,-252"/>
<text text-anchor="middle" x="457" y="-229.8" font-family="Times,serif" font-size="14.00">AppComponent </text>
</g>
<!-- AppModule&#45;&gt;AppComponent  -->
<g id="edge7" class="edge">
<title>AppModule&#45;&gt;AppComponent </title>
<path fill="none" stroke="black" stroke-dasharray="1,5" d="M457,-187.11C457,-187.11 457,-205.99 457,-205.99"/>
<polygon fill="black" stroke="black" points="453.5,-205.99 457,-215.99 460.5,-205.99 453.5,-205.99"/>
</g>
<!-- AppRoutingModule -->
<g id="node6" class="node">
<title>AppRoutingModule</title>
<polygon fill="#8dd3c7" stroke="black" points="292.27,-122 289.27,-126 268.27,-126 265.27,-122 163.73,-122 163.73,-86 292.27,-86 292.27,-122"/>
<text text-anchor="middle" x="228" y="-99.8" font-family="Times,serif" font-size="14.00">AppRoutingModule</text>
</g>
<!-- AppRoutingModule&#45;&gt;AppModule -->
<g id="edge5" class="edge">
<title>AppRoutingModule&#45;&gt;AppModule</title>
<path fill="none" stroke="black" d="M228,-122.02C228,-139.37 228,-163 228,-163 228,-163 405.26,-163 405.26,-163"/>
<polygon fill="black" stroke="black" points="405.26,-166.5 415.26,-163 405.26,-159.5 405.26,-166.5"/>
</g>
<!-- HeaderComponent -->
<g id="node7" class="node">
<title>HeaderComponent</title>
<polygon fill="#8dd3c7" stroke="black" points="145.74,-122 142.74,-126 121.74,-126 118.74,-122 24.26,-122 24.26,-86 145.74,-86 145.74,-122"/>
<text text-anchor="middle" x="85" y="-99.8" font-family="Times,serif" font-size="14.00">HeaderComponent</text>
</g>
<!-- HeaderComponent&#45;&gt;AppModule -->
<g id="edge6" class="edge">
<title>HeaderComponent&#45;&gt;AppModule</title>
<path fill="none" stroke="black" d="M85,-122.28C85,-143.32 85,-175 85,-175 85,-175 405.05,-175 405.05,-175"/>
<polygon fill="black" stroke="black" points="405.05,-178.5 415.05,-175 405.05,-171.5 405.05,-178.5"/>
</g>
</g>
</svg>
